# xmcd
#
# Track frame offsets:
#	150
#	16115
#	44020
#	70372
#	98390
#	131605
#	176145
#
# Disc length: 4440 seconds
#
# Revision: 1
# Processed by: cddbd v1.5.2PL0 Copyright (c) Steve Scherf et al.
# Submitted via: audiograbber 1.83.01
#
DISCID=58115607
DTITLE=Room 5 feat. Oliver Cheatham - Make luv (Maxi)
DYEAR=1900
DGENRE=Pop
TTITLE0=Make luv (Radio version)
TTITLE1=Make luv (J J's Dub edit)
TTITLE2=Make luv (Extened Mix)
TTITLE3=Make luv (Doublefunk Remix)
TTITLE4=Make luv (Axwell dub mix)
TTITLE5=Make luv (Axwell remix)
TTITLE6=Daten-CD
EXTD=
EXTT0=
EXTT1=
EXTT2=
EXTT3=
EXTT4=
EXTT5=
EXTT6=
PLAYORDER=
